<svg width="34" height="31" viewBox="0 0 34 31" fill="none" xmlns="http://www.w3.org/2000/svg">
<path d="M24.5017 8.56445C21.6968 8.56445 19.0516 9.77944 17.3229 11.8415C17.2257 11.9595 17.1285 12.0845 17.0313 12.2094L15.2539 14.5769L17.0313 18.3607L17.5034 19.3675C17.8158 20.034 18.5031 20.4297 19.2252 20.4297C19.4821 20.4297 19.739 20.3811 19.9889 20.277C20.9401 19.8812 21.3705 18.8329 20.9539 17.9303L19.5723 14.9935L20.1139 14.2784C21.1206 12.9384 22.766 12.1331 24.5087 12.1331C27.4802 12.1331 29.8963 14.4172 29.8963 17.2152V18.4579C29.8963 19.2564 29.6672 20.034 29.2298 20.7213C28.3966 22.0335 26.8623 22.8527 25.2377 22.8527C24.1962 22.8527 23.3562 23.6512 23.3562 24.6301C23.3562 25.609 24.2032 26.4075 25.2377 26.4075H25.4737C25.5431 26.4075 25.6195 26.4075 25.6889 26.3936C26.9872 26.3311 28.2578 25.977 29.3894 25.373C30.653 24.6995 31.7153 23.7206 32.4651 22.5473C33.2496 21.3114 33.6662 19.8951 33.6662 18.4579V17.2152C33.6662 12.4524 29.5561 8.5714 24.5087 8.5714L24.5017 8.56445Z" fill="#749CD1"/>
<path d="M6.87426 30.5591C6.49935 30.5591 6.1175 30.455 5.78424 30.2328C4.93722 29.6635 4.73588 28.5526 5.3399 27.7542L25.4393 1.07998C26.0433 0.281561 27.2167 0.0941052 28.0637 0.663415C28.9107 1.23272 29.1121 2.34357 28.508 3.14199L8.41556 29.8162C8.0476 30.3022 7.4644 30.5661 6.88121 30.5661L6.87426 30.5591Z" fill="#F5B236"/>
<path d="M9.49151 22.0958C9.44985 22.0958 9.40125 22.0958 9.35959 22.0958C6.91573 22.0611 4.63155 21.1307 2.92362 19.4783C1.22263 17.819 0.299238 15.639 0.333952 13.327C0.368666 11.0775 1.04212 8.86973 2.29182 6.95351C2.83336 6.11344 3.99281 5.85655 4.88149 6.37032C5.77017 6.88409 6.04788 7.98105 5.4994 8.81419C4.60378 10.1889 4.11778 11.7718 4.09695 13.3825C4.07612 14.7433 4.61766 16.0278 5.61742 16.9997C6.61719 17.9717 7.96409 18.5202 9.40125 18.541C9.42902 18.541 9.44985 18.541 9.47762 18.541C11.1925 18.541 12.8102 17.7704 13.8238 16.4652L15.254 14.5698L12.0812 7.79359C11.6577 6.89797 12.0881 5.84267 13.0462 5.44693C13.9974 5.05119 15.1082 5.45387 15.5317 6.35643L19.142 14.0629C19.4128 14.6392 19.3364 15.3057 18.9545 15.8125L16.8995 18.541C16.8995 18.541 16.8925 18.5549 16.8856 18.5549C15.1638 20.7836 12.4075 22.1027 9.49151 22.1027V22.0958Z" fill="#ED4183"/>
</svg>
