<svg width="24" height="25" viewBox="0 0 24 25" fill="none" xmlns="http://www.w3.org/2000/svg">
<g clip-path="url(#clip0_426_4632)">
<path d="M16.3394 0.738397L16.2187 3.44965C16.2149 3.6019 16.3904 3.69565 16.5119 3.6019L17.5702 2.8009L18.4687 3.4999C18.5857 3.5779 18.7424 3.4999 18.7499 3.3589L18.6487 0.601147L19.9807 0.499897C20.6722 0.452647 21.2617 1.0039 21.2617 1.69915V23.3006C21.2617 23.9884 20.6872 24.5351 20.0002 24.4999L3.89842 23.7814C3.27367 23.7544 2.76967 23.2504 2.75017 22.6211L2.00017 2.8204C1.96117 2.15665 2.46517 1.5859 3.12892 1.55065L16.3282 0.718897L16.3394 0.738397ZM13.2697 9.80065C13.2697 10.2694 16.4302 10.0391 16.8592 9.7189C16.8592 6.5194 15.1402 4.82815 11.9999 4.82815C8.85142 4.82815 7.10167 6.5509 7.10167 9.12115C7.10167 13.5701 13.1017 13.6481 13.1017 16.0781C13.1017 16.7816 12.7814 17.1799 12.0509 17.1799C11.0902 17.1799 10.6994 16.6916 10.7504 15.0199C10.7504 14.6606 7.10167 14.5391 6.98092 15.0199C6.71167 19.0511 9.21141 20.2189 12.0787 20.2189C14.8717 20.2189 17.0512 18.7309 17.0512 16.0391C17.0512 11.2699 10.9499 11.3981 10.9499 9.0394C10.9499 8.0704 11.6729 7.9414 12.0787 7.9414C12.5317 7.9414 13.3289 8.0119 13.2704 9.8089L13.2697 9.80065Z" fill="#E3E3E3"/>
</g>
<defs>
<clipPath id="clip0_426_4632">
<rect width="24" height="24" fill="white" transform="translate(0 0.5)"/>
</clipPath>
</defs>
</svg>
